/* XPM */
static char *DeadBush1648979496[] = {
/* columns rows colors chars-per-pixel */
"132 74 29 1 ",
"  c None",
". c #070605",
"X c #080706",
"o c #0A0807",
"O c #0D0B09",
"+ c #110E0C",
"@ c #14120E",
"# c #171410",
"$ c #191611",
"% c #1D1914",
"& c #211C17",
"* c #231E19",
"= c #26211A",
"- c #2A241D",
"; c #2E2720",
": c #2F2921",
"> c #342D24",
", c #373026",
"< c #393127",
"1 c #3B3329",
"2 c #3F382E",
"3 c #40382F",
"4 c #443C33",
"5 c #474037",
"6 c #4B443C",
"7 c #4E4640",
"8 c #4F4841",
"9 c #534C44",
"0 c #564F48",
/* pixels */
"                                                                                                                                    ",
"                                                                                 <                                                  ",
"                                                                                <                                                   ",
"                                                         <                    <1                                                    ",
"                                                         <1                  <1<                                                    ",
"                                                          11                111                                                     ",
"                                                           <<              <111                                                     ",
"                                                           11<            111<                                                      ",
"                                          <                 <11          1111<                                                      ",
"                                          <                  <111       <1111                                                       ",
"                                          1                   111<     <1111<                                                       ",
"                                          1                   ;1111   <1111<                                                        ",
"                                          <<                   #><1,<<11111                                                         ",
"                                          <1                   $o;111111111                                                         ",
"                                          1<                    +.$,<11111<                                                         ",
"                         <                11        <            ooO>111111                                                         ",
"                        <                 <1        1            $..o,11111<               1                                        ",
"                        <                 11        1             O..+,1111<               1                                        ",
"                        1                 11<      <1<             ...%11111               1        <                               ",
"                       11                 11<      <11             #...;1111:              <<        <                              ",
"                       11                 11<      :11              ...o><11=              11        1<                             ",
"                      <11                 111      &11<             $..#@,11-$             <11        <                             ",
"                      <11                <111      $11<              O.%>>11-O             <11        <1               <<           ",
"                     <<11                4111      O11<               oO1111:X             <111        11             <1            ",
"                     1111               82111      X<11               $.:111>.@             111        11<          11<             ",
"                     1111               91111      .><1<               %$111>XX             111         11        <11<              ",
"                    1111<              98<11       X:111              11>111:X.$            1111        111     <1111<              ",
"                    11111             506<1<      $X$11138           111<11>O.O             1111         111   <1111<               ",
"                   1111115            90411<       O.=11168         611111<+.o              1111,        <11<1111111                ",
"                   111111196         600111        $.o>11106       861111<#..              64111=         111111111                 ",
"                  <11111111008       009111         +.+<11409     6031111%..$              0511<#         1111111<                  ",
"       1          <1111111<40008    600811<          ..%111609   709<111=o.#              90411=$          111111<                  ",
"       1          :>11<111111599095 004511           #..-113000  00511<;..+              408111@$          111111                   ",
"      <1           $@#&=><111<146000091411            o.X-1<160090021<>o.O               9041<<X$          11111<                   ",
"      11              #X.X@%=:<1116005111<            $...=11149009<1,#=o               805111=X           11111<                   ",
"     <11                #O...oO=111401111              O..X&1<<15061<;1&$               991111@.          411111                    ",
"     111                  $+....@-111111<              $....$<111221111%               604<1:>X.          511111                    ",
"    <111                     @X...O;11111               +...X#<<111111,                0511<#=X.          611111                    ",
"    1111                       $o..=,1111                ....O+,111111<               89111=+@.X          641111                    ",
"   <1111                         #.&11111                O...=:%>111111              80411,OO..O          651111                    ",
"   <1111266                      $.+111111               +..o&11,111111            5006<11&....+          661111                    ",
"  <11111115096                   $..>11111               @...%111111111           900911<,o....@          691111                    ",
"  111111111280096                 ..%11111               #...#11111111<         90006411<%...oo$          89111<                    ",
" <11111<1111<40000086             ..O<11114              $...O111111111       6000941111=....o            99111<                    ",
" ,<1111<111<111688000095          X..-<1114              %...o<11111111     6900051111>O....+             95111<                    ",
"   %$%=;><1<111111<34009          X..$11111              $....<11111111    900961111,$.....#             90411111<<<                ",
"      $+ooO#%=;><<<<<8006         O..o111115              ....>1111111<  800084<11<&o.....#             909111111111111<            ",
"         $@o....oO#>11000         O.Xo>111155             ....>1111111<444984<11<;O.....o$             900654<11111111111111        ",
"            %#O....O,14006        +XX.=1111400095         XXO.-1111111114951111>@......O              90000411111111111111111111<   ",
"                $O..$<1980        @.XX&11114000000065     XX$#=111111114511111>O......+              90000511=&%%%%%%$$$$$##@$$%&=  ",
"                  #.X=13958       $X.X+111110000000000085 O.$>*11111<1441111<>o.X....#              90000511-.XX.....oO@@$$         ",
"                   .Xo><419       $X.Xo=1111<1469000096441&.#<>11111<<<11111>o..@X.X#              9000061<:o.o@@$%                 ",
"                   $..+<1168       X....@><<11111145804111<+@11111111111111>o.O;-.o$              90009411>OXo                      ",
"                    oX.&1110        +....X&<11111111<134111:+1111111111111>OO*<1+O               90009111<+oX                       ",
"                    %...;<<69         +.X..O:111111111111111&111111111111>O%<11:+               900061>1<$XX$                       ",
"                     O..O,1105         $O....$>1111111111111,11111111111,%>1<11&               900941>%1&..@                        ",
"                      ...#<169           $OXX#@=111111111111111111111111,<111<11146665        8006111@*=XXO                         ",
"                      @...=1108            $o$<>:111111111111111111111111111144446690000099889005<11&X*OXO                          ",
"                       ...X><5096            $<11111,-111111111111111111111112444456000000000094111=..OXo                           ",
"                       #..X+<18006            1111111$-1111111111111111111111<<<<<4900000009961111>X...X$                           ",
"                        o.O&-114609          <1111111*X-1111111111111111111111111154442411111111<<O....#                            ",
"                        $..#<11111406       1<1111111,XX:11111111111111,1111111111111<<111111<11<@....+                             ",
"                         OX.#<<<111145     <1111111111@Xo:1<1111111111<$11111111111<11<11<11<>;=$....O                              ",
"                          O..@<<1111112   <11111111111*XXX><11111111<,#$11111111111<>>-*%$+O........o                               ",
"                           X..+,1111111<  <11111111111:...$111111111,#.&11111111>#O.................$                               ",
"                            X..+>111111111111111111<1=o..o$111111111#..=11111111<o.................$                                ",
"                            %....#:1111111<11;<111<<%X....$<111111<$...>11111111<$..oOO+O@@#@#$$#$$                                 ",
"                             $.....#:11111<>#.=<11>+......$11<$=11$o...,11111111<=..+                                               ",
"                              $......#-11<=o..o,1=oX......#<:Ooo<%....O111:%O@=,<>...#                                              ",
"                               @.......+-#.X...%%X........@&....+o....#>&O....oO%>oX..#                                             ",
"                                o.........................XX..........o................$                                            ",
"                             $+.o.......................................................$                                           ",
"                          #OX...........................X.................oX............X$                                          ",
"                                                                                                                                    "
};
