/* XPM */
static char *LeftArrowSign1649017152[] = {
/* columns rows colors chars-per-pixel */
"86 87 235 2 ",
"   c None",
".  c #1B353A",
"X  c #1B353B",
"o  c #1B363A",
"O  c #1B373A",
"+  c #1B363B",
"@  c #1C353A",
"#  c #1C353B",
"$  c #1D353B",
"%  c #1C363A",
"&  c #1C363B",
"*  c #1D363B",
"=  c #1C373B",
"-  c #1D373B",
";  c #1B363C",
":  c #1C353C",
">  c #1D353C",
",  c #1C363C",
"<  c #1D363C",
"1  c #1C373C",
"2  c #1D373C",
"3  c #1E383D",
"4  c #1F383D",
"5  c #20373C",
"6  c #25383B",
"7  c #21383C",
"8  c #21383D",
"9  c #2E3939",
"0  c #2F3939",
"q  c #2F3B3B",
"w  c #2A3A3C",
"e  c #2D3B3C",
"r  c #2E3B3C",
"t  c #3C3E3B",
"y  c #43241A",
"u  c #44241A",
"i  c #44251A",
"p  c #45251B",
"a  c #46251B",
"s  c #49271D",
"d  c #4A271C",
"f  c #4C291D",
"g  c #4C291E",
"h  c #4E2A1E",
"j  c #512C20",
"k  c #532D20",
"l  c #542E21",
"z  c #552F22",
"x  c #573023",
"c  c #583023",
"v  c #5A3123",
"b  c #5A3124",
"n  c #5B3124",
"m  c #5B3224",
"M  c #5C3224",
"N  c #5D3225",
"B  c #5E3325",
"V  c #5F3425",
"C  c #5F3426",
"Z  c #403E3A",
"A  c #5C3D31",
"S  c #603426",
"D  c #603526",
"F  c #613526",
"G  c #623426",
"H  c #623526",
"J  c #633626",
"K  c #623627",
"L  c #633627",
"P  c #643727",
"I  c #653727",
"U  c #663828",
"Y  c #673828",
"T  c #693929",
"R  c #693A29",
"E  c #6A3A29",
"W  c #6B3B29",
"Q  c #6B3B2A",
"!  c #6C3B2A",
"~  c #6C3C2A",
"^  c #6E3D2A",
"/  c #6E3C2B",
"(  c #6E3D2B",
")  c #6F3D2B",
"_  c #6D3E2C",
"`  c #6C3F2E",
"'  c #6F3F2E",
"]  c #713D2B",
"[  c #723D2A",
"{  c #723D2B",
"}  c #703E2B",
"|  c #713E2B",
" . c #723E2A",
".. c #723F2A",
"X. c #733F2A",
"o. c #723E2B",
"O. c #733E2B",
"+. c #723F2B",
"@. c #733F2B",
"#. c #723D2C",
"$. c #703E2C",
"%. c #713E2C",
"&. c #703F2C",
"*. c #723E2C",
"=. c #733E2C",
"-. c #723F2C",
";. c #733F2C",
":. c #733E2D",
">. c #733F2D",
",. c #743F2D",
"<. c #613E30",
"1. c #4F4139",
"2. c #504239",
"3. c #534239",
"4. c #5B4438",
"5. c #74402C",
"6. c #74402D",
"7. c #75402D",
"8. c #75412D",
"9. c #76412D",
"0. c #77412D",
"q. c #77422D",
"w. c #77412E",
"e. c #77422E",
"r. c #79432D",
"t. c #78422E",
"y. c #79422E",
"u. c #79432E",
"i. c #79422F",
"p. c #78432F",
"a. c #7A432E",
"s. c #7A432F",
"d. c #7B432F",
"f. c #7B442E",
"g. c #7B442F",
"h. c #7C442F",
"j. c #7D442F",
"k. c #7D452F",
"l. c #7E462F",
"z. c #6C4030",
"x. c #6F4231",
"c. c #6D4737",
"v. c #634538",
"b. c #664638",
"n. c #674638",
"m. c #7D4530",
"M. c #7E4530",
"N. c #7F4530",
"B. c #7F4630",
"V. c #764936",
"C. c #7A4834",
"Z. c #794A36",
"A. c #7A4A36",
"S. c #7B4A36",
"D. c #7C4A36",
"F. c #80462F",
"G. c #804630",
"H. c #814731",
"J. c #824731",
"K. c #814733",
"L. c #824831",
"P. c #834831",
"I. c #834832",
"U. c #844831",
"Y. c #844832",
"T. c #844932",
"R. c #854932",
"E. c #864932",
"W. c #864A32",
"Q. c #874A32",
"!. c #874A33",
"~. c #834934",
"^. c #804B36",
"/. c #864B34",
"(. c #874C35",
"). c #884A33",
"_. c #884B33",
"`. c #894B33",
"'. c #8A4B33",
"]. c #8A4C33",
"[. c #884B34",
"{. c #894D35",
"}. c #8A4C34",
"|. c #8B4C34",
" X c #8B4D35",
".X c #894D37",
"XX c #8C4C34",
"oX c #8C4D34",
"OX c #8D4D34",
"+X c #8D4D35",
"@X c #8C4E35",
"#X c #8E4E35",
"$X c #8F4E35",
"%X c #8F4F35",
"&X c #8D4E36",
"*X c #8F4F36",
"=X c #904F36",
"-X c #905036",
";X c #915036",
":X c #915037",
">X c #925037",
",X c #925137",
"<X c #925138",
"1X c #935138",
"2X c #935238",
"3X c #935239",
"4X c #92523B",
"5X c #945239",
"6X c #955339",
"7X c #95533A",
"8X c #96533A",
"9X c #94543B",
"0X c #96543A",
"qX c #96543B",
"wX c #97543B",
"eX c #97553B",
"rX c #98553B",
"tX c #98553C",
"yX c #99553C",
"uX c #9A553D",
"iX c #99563D",
"pX c #9A563D",
"aX c #9A573D",
"sX c #99563E",
"dX c #9A573E",
"fX c #9B573E",
"gX c #9A573F",
"hX c #9C583F",
"jX c #9D583F",
"kX c #9D5940",
"lX c #9E5940",
"zX c #9E5A41",
"xX c #9F5A41",
"cX c #A05A41",
"vX c #A05B42",
/* pixels */
"                                                                                                        g.r.d.oXoXoXXXXXXXXXXXfXkXtX                                        ",
"                                                                                                        g.6.5.XX%XXX=XoXoX=X%XvXvXyX                                        ",
"                                                                                                        g.6.6.oXoX-XoX=X<XoX%XvXvXyX                                        ",
"                                                                                                        g.6.6.%X%XoX=XoXoXoX%XvXvXyX                                        ",
"                                                                                                        d.6.6.-X=XoX=XoXoX=X<XxXvXkX                                        ",
"                                                                                                        d.6.6.oXoX=XoX=X=XoXoXvXvXyX                                        ",
"                                                                                                        6.6.6.%X=XoX=XoX=XoX<XvXvXyX                                        ",
"                                                                                                        g.6.6.%XoX=XoX=XoX=XoXvXvXyX                                        ",
"                                                                                                        g.6.6.oX=XoX=XoX=XoX<XvXvXkX                                        ",
"                                                                                                        g.6.6.%XoX=XoX=XoX=XoXvXvXyX                                        ",
"                                                                                                        g.5.6.-X=XoX=XoX=XoX<XvXvXyX                                        ",
"                                                                                                        g.6.6.oXoX=XoX=XoX=XoXvXvXyX                    @.;.@.5.6.          ",
"                                                                                                        d.6.6.%XoX=XoX-X=XoX<XvXxXtX        ;.;.;.6.6.6.6.6.6.6.6.          ",
"                                                              @.;.@.                                    d.6.6.oX=XoX=XoXoX}.E..X~.m.;.6.6.;.;.;.,.6.6.6.d.N.I.6.6.;.        ",
"                                                            O.6.;.;.                                    d.6.6./.E.N.N.6.6.6.;.6.;.,.6.6.6.6.N.N.J.`.oXoX=XoXoXh.6.;.        ",
"                                                          ;.6.6.6.;.                                  @.6.6.6.6.6.6.6.6.6.6.6.6.m.J.E.[.oXoXoX=XoXoX=XoXoX-XoXN.6.;.        ",
"                                                        ;.,.,.h.6.;.                    @.;.;.;.6.6.6.6.6.6.6.6.6.d.N.I.E.}.oXoXoX=XoX=XoX=X=XoX=XoX=XoXoXoXoXE.6.@.        ",
"                                                    ;.;.6.6.`.[.6.6.        @.;.@.6.6.6.;.,.,.,.6.6.6.d.N.E.E.}.oXoX=XoXoXoXoX=X=XoX=XoX=XoXoX=XoX=XoX=XoXI.N.6.6.6.        ",
"                                                  @.6.6.h.oX=XoX6.6.;.;.6.6.6.6.,.6.6.6.6.N.J.J.[.oXoX=X=XoX=XoXoX=XoX=X=XoX=XoXoX=XoX=XoXoXoXoXoXE.J.d.6.6.6.6.6.6.        ",
"                                                ;.6.6.N.oXoXoX=X6.6.6.6.6.6.d.N.J.E.}.oXoXoX=XoX=XoX=XoXoX=XoX=X-XoX=XoXoX=XoX=X=XoX=XoX=XXXE.h.6.6.6.6.6.6.6.6.6.6.        ",
"                                              ;.6.6.E.=X=XoX=XoXJ.J.J.E.oXoX=XoXoX-XoX=XoX=XoX=XoX=X=XoX=XoX=XoXoX=XoX=X=XoX=XoXoX=X[.J.d.6.6.6.6.6.6.6.6.d.d.h.6.6.@.      ",
"                                          @.6.6.6.[.oXoXoX=XoX=XoXoXoXoX=XoXoX=XoXoX=XoX=XoX=XoX=XoXoX=XoX=XoX=X=XoX=XoXoX=XoX/.N.6.6.6.6.N.N.I.E.E.}.oXoXoX=XoXJ.;.@.      ",
"                                        @.6.6.d.oX=X=XoX=XoX=XoX=XoX-XoXoX=XoX=XoX=XoX=XoX=XoX=XoXoX=XoX=XoX=XoX=X7X7X<XoX[.E.E.}.oX=XoXoXoX=XoXoXoX=XoXoX=XoX=XI.6.@.      ",
"                                      @.6.6.h.XXoX=XoX=XoX=XoX=XoX=XoX=X=XoX=XoX=XoX=XoX=XoX=XoX=X=X-XrXyXyXyXyX1X=X=XoX=X=XoXoXoX=XoX=XoX-XoX=XoX-XoX=X=XoX=XoXE.6.6.      ",
"                                    @.6.6.J.oXoX=XoX=XoX-XoX=XoX=XoX-XoX=X=XoX=XoX=XoX=X7XwXyXlXxXvXyXwX>XoX=XoXoX=XoX=XoX=XoX=X=XoX=XoX=XoX=XoXoX=XoX=XoX=XoX=XoX6.6.      ",
"                                @.,.6.6.g.E.[.`.}.oXoX=XoXoXoX=XoX=XoXoXoX1X7XeXyXxXvXvXvXjXrX7X=XoX=XoX=X=XoX=X=XoX=XoX=XoX=XoXoX=XoX=XoX=XoX=X=XoX=XoX=XoX=XoXoX6.6.      ",
"                              @.6.6.6.6.6.6.6.6.6.6.6.6.6.d.d.N.J.N.I.I.}.oX-XeXyXyXyX=X=XoX=XoXoX=XoX=XoX=X=XoXoX=XoX=XoX=XoX=X=XoX=XoX=XoX=XoXoX=XoX=XoX=XoX=XoXd.6.@.    ",
"                            ;.;.6.6.6.6.6.6.6.;.6.6.6.6.6.6.6.g.N.N.~.(.oXoX=XoXoX=XoX=XoX=XoX=X=XoX=XoX=XoXoX=X=XoX=XoX=XoX=XoXoX=XoX=XoX=XoX=X=XoX=XoX=XoX=XoX=Xh.6.@.    ",
"                          ;.6.6.6.6.6.6.6.6.6.d.N.N.I.E.[.oX=XoX=XoX=XoX=XoX=XoX=XoX=XoXoX=XoX=XoX=XoX=X=XoX=XoX=XoX=XoXoX=XoX=X=XoX=XoX=XoX=XoXoX=XoX=XoX=XoXoXoXJ.6.;.    ",
"                        ;.6.6.6.6.d.N.I.E.`.oX=XoXoX=XoXoXoXoX=XoX=XoX=XoX=XoX=XoX=XoX=X=XoX=XoX=XoX=XoXoX=XoX=XoX=XoX=X=XoX=XoXoX=XoX=XoX=XoXoX=XoX=X1X7XyXyX7XoXE.6.;.    ",
"                    @.6.6.6.}.oXoX=XoX=XoXoX=XoXoX=XoX=X=XoX=XoX=XoX=XoX=XoX=XoX=XoXoX=XoX=XoX=XoX=XoX=X=XoX=XoX=XoX=XoX=XoXoX=X=XoX=X-X7X7XyXjXxXvXjXyXyX-X=XoX=X}.6.6.    ",
"                  @.;.,.d.oXoX=X=XoX=XoXoX=XoX=X=XoX=XoXoX=XoX=XoX=XoX=XoX=XoX=XoX=X=XoX=XoX=XoX=XoX=XoXoX=XoX=XoX=XoX=X=X7X7XrXyXyXyXrX7X7X<X=XoXoX-XoXoX=XoX=XoX}.6.6.    ",
"                ;.6.6.J.=XoX=XoX=XoX=XoXoX=XoX=X=XoX=XoXoX=XoXoX=XoXoX=X7XwX7X7X<X=XoX=XoX=XoX=XoX=XoX=XoX=X7X7X7X7XwX7X7X-X=X=X=XoX=XoX=XoXoXoX=XoX=XoXoX/.J.N.6.6.6.6.;.  ",
"              ;.6.6.E.=XoX=XoX=XoX=XoX=X=XoX=XoXoX=XoXoX=X-XeXeXyXxXjX7X-X=X=XoX=XoX=XoXoX=X=X=X=X-X=X<X7X=X=XoXoX=XoX=XXX=X=XXXoX=XoX=XoX=XoXXX[.Y.N.d.6.6.,.6.6.6.6.6.@.  ",
"          ;.6.6.6.[.=XoX=XoX=XoX=XoX=XoXoX=X=X7XrXyXlXxXvXvXyXtX-X=XoX=XoX=XoX=XoX=XoX=XoX=XoX=X=XoX=XoX=XoX=XoX=XoX=XoXXX=XXX=X=XoX=XoX[.E.m.m.d.6.,.6.d.;.6.6.6.6.6.6.@.  ",
"        @.,.,.m.oXoXoX=XoX=XoX=XoX=XoX=X7XyXjXvXvXxXyX7X-XoX=XoX=XoX=XoX=XoX=XoX=XoX=XoX=XoX=XoXoX=XoX=XoX=XoX=XoX=XoX=X-XXX=XXXoX=XoXoX=XoXoXoXoXoX=XoXoX-XoXoXoXoXE.,.@.  ",
"      ;.6.6.N.oX=XoX=XoX=XoX=XoX=XoX=XoX=XoX=XoXoXoX=XoXoX=XoX=XoX=XoX=XoX=XoX=XoX=XoX=X=XoX=XoX=XoX=XoX=XoX=XoXXX-XXX-XXX-XXX-XoX=XoX=XoXoX%XoXoX=X=XoX=X}.V.v.2.t A.6.,.  ",
"    ;.;.6.h.oXoXoX=XoX=XoX=XoX=XoX=XoX=XoX=XoX=XoX=XoX=X=XoX=XoX=XoX=XoX=XoX=XoX=XoX=XoXoX=XoX=XoX=XoX=XoX=XoX=X-XXX-XXX-XXX-XXX=XoX=XoX=X<XoX}.A.n.2.Z e 3 3 3 3 3 E.6.6.  ",
"  ;._ 6.,.6.6.J.[.oX=XoX=XoX=XoX=XoX=XoX=XoX=XoX=XoX=XoXoX=XoX=XoX=XoX=XoX=XoX=XoX=X=XoX=XoX=XoX=XoX=XoX=XoX=XoXXX-XXX-XXX-XXX-XoX=XoX=XoXc.e 8 3 3 3 3 3 3 3 3 3 6 6.6.,.  ",
"        @.6.6.6.6.d.E.oXoX=XoX=XoX=XoX=XoX=XoX=XoX=XoX=X=XoX=XoX=XoX=XoX=XoX=XoX=XoX=X<X7X-XoX=XoX=XoX=XoX=XoX=X-XXX-XXX-XXX-XXX=XoX=XoX=Xn.3 3 3 3 3 3 3 3 3 3 3 0 6.6.;.@.",
"            @.;.6.6.6.6.h.`.oXoX=XoXoXoX=XoXoX`.E.E.oX<XoXoXoX=XoXoX=XoXoX=X7XyXyXyXeXoX=XoX=XoX=XoX=XoXoX=XoXoXXX-XXX%XoXoXoXoX[./.N.N.6.A 3 3 3 3 3 3 3 3 3 3 3 0         ",
"                  ;.;.6.6.,.6.J.[.XX`.J.j.d.6.,.J.=XoXoXoX=X=XoX=X1X7XjXxXvXyX<XoX=X=XoXoX=XoX=XoX=XoXoX=XoX-XoXXXXX`.E.H.h.d.6.6.6.;.6.6.<.3 3 3 3 3 3 3 3 3 3 - ;         ",
"                        @.6.6.;.6.6.6.6.6.6.6.E.-XoXoXoX7X7XyXjXvXvXvXwX7XoX-XoXoX=XoX=XoXoXoXoX=XoXoXoXE.I.N.d.6.6.6.6.6.6.6.6.;.;.;.6.;.  3 < < 3 3 3 3 3 3 3             ",
"                            @.@.6.6.6.6.6.6.XXoXoX-X<XeX7X7X7X7X7X=X=XoXoX=XoXoX=XoX=XoXoXoXE.J.h.d.6.6.6.6.6.6.6.6.6.6.d.h.I.<XkXyX        3 <   3 3 3 3 3 3 O             ",
"                                  @.6.;.6.6.d.I.oX}.~.oXoXoX=XoXoX=X=XoX=XoX}.E.E.N.d.6.6.6.6.6.6.6.6.6.6.6.6.F.I.`.`.`.oXoX-XvXvXyX        3     3 3 3 3 3 3 -             ",
"                                      @.,.6.6.6.6.x.3 e 2.c.}.oX=XoXoX=XJ.6.6.6.6.6.6.6.6.6.,.O.,.;.    d.6.6.oXoXoXoXI.oX-X-XvXvXyX        -     3 < O < 3 3               ",
"                                            @.@.6.z.3 3 8 3 8 t 4.D.oXoXN.6.6.6.6.@.@.                  g.6.6.=XoX=X}.h.=XoX=XvXyXyX              3 3   < 3 3               ",
"                                                  6.8 3 3 3 3 3 < < e D.I.6.;.                          g.6.6.oX=XoX}.6.oX=XoXvXtXeX              - 3   - 3 <               ",
"                                                    5 3 3 3 3 3 3 3 3 Z.E.6.6.                          q.6.6.oXoX%X}.6.E.oX-XvXeX-X              < -   < < <               ",
"                                                    3 < 3 3 3 3 3 3 3 z.N.6.6.                          g.6.5.oX-XoXE.6.I.oX%XvX1X1X              -     - 3                 ",
"                                                    O - 3 3 3 3 3 3 3 _ 6.6.;.                          q.6.) B.oX=XE.6.m.oX%XvX=X-X              -     - 3                 ",
"                                                      ; 3 3 3 3 < 3 3 _ ;.6.;.@.                        g.5.R d.=XoXE.6.6.}.-XxX=X1X                      <                 ",
"                                                        3 3 3 3 < ; <       ;.@.                        d.6.I 6.}.oXI.6.6.E.%XkX=X-X                      -                 ",
"                                                        3 3 < 3 3   3                                   d.6.D 6.J.oXE.6.6.N.-XyXoX-X                                        ",
"                                                        3 3 - 3 -   O                                   6.6.B 6.6.oXE.;.6.6.&XtXoX7X                                        ",
"                                                        < 3   < -                                       g.) m 6.6.E.I.6.6.6.[.eX=X-X                                        ",
"                                                        - 3   - O                                       ) ! m 6.6.h.I.6.6.6.I.-XoX7X                                        ",
"                                                        O 3     O                                       G D m 6.6.6.h.6.6.6.h.-X=X-X                                        ",
"                                                          <     O                                       G m m 6.6.6.d.6.6.6.6.-X-X<X                                        ",
"                                                          3     X                                       G m m ,.6.6.6.6.6.6.d.oXoX-X                                        ",
"                                                          -                                             G m m ,.6.6.6.6.6.6.6.%XoX7X                                        ",
"                                                          -                                             G m m ,.6.6.6.6.6.6.g.oX%X<X                                        ",
"                                                                                                        D n m 6.6.6.6.6.6.6.5.XX%X-X                                        ",
"                                                                                                        D m m 6.6.6.6.6.6.6.W %X-X-X                                        ",
"                                                                                                        D m m ,.;.;.;.6.6.;.K oXoX7X                                        ",
"                                                                                                        G N m ,.Y ;.6.6.6.Q Y =X=X-X                                        ",
"                                                                                                        G m m @.N ;.6.6.6.U K oXoX7X                                        ",
"                                                                                                        G m m Q m _ 6.6.6.N D oX=X-X                                        ",
"                                                                                                        G m m D m Q ;.6.) m D oXoX<X                                        ",
"                                                                                                        N m m m m Y ;.,.Q N N =X=X-X                                        ",
"                                                                                                        N c k m m K ,.,.D m N oXoXoX                                        ",
"                                                                                                        m m g c m B 6.;.m m N =XoX~.                                        ",
"                                                                                                        m c p c m N ,._ c m N oX}.h.                                        ",
"                                                                                                        k j u m c m ;.Y m c N oXJ.h.                                        ",
"                                                                                                        k s u m m c / G c m N }.q.B.                                        ",
"                                                                                                        g y u c c c Q c m m m E.5.H.                                        ",
"                                                                                                        s p u m N c N N m c N m.6.h.                                        ",
"                                                                                                        d y u c c m c N n n N ,.q.B.                                        ",
"                                                                                                        d y y m N c N c n n n ,.5.B.                                        ",
"                                                                                                        d y u m c m c m n n n x.6.h.                                        ",
"                                                                                                        s y u c m c m c m m N 6.6.B.                                        ",
"                                                                                                        s u u m c N c N c m m 6.6.B.                                        ",
"                                                                                                        s u y c N c m c m c m 6.6.B.                                        ",
"                                                                                                        s u y m c m c m c m N ,.5.B.                                        ",
"                                                                                                        s p y m N n n n m m m ;.5.l.                                        ",
"                                                                                                        s y p m c n n n m m m ;.6.B.                                        ",
"                                                                                                        g p p N n n n n N N B 6.6.H.                                        "
};
