/* XPM */
static char *ArrowSign1648979497[] = {
/* columns rows colors chars-per-pixel */
"86 87 237 2 ",
"   c None",
".  c #1B363A",
"X  c #1B373B",
"o  c #1C353B",
"O  c #1C363B",
"+  c #1D363B",
"@  c #1C373B",
"#  c #1D373B",
"$  c #1E363B",
"%  c #1B373C",
"&  c #1C363C",
"*  c #1D363C",
"=  c #1C373C",
"-  c #1D373C",
";  c #1C373D",
":  c #1D373D",
">  c #1E373C",
",  c #1E363D",
"<  c #1E373D",
"1  c #1D383B",
"2  c #1D383C",
"3  c #1D383D",
"4  c #1E383D",
"5  c #1F383D",
"6  c #1F393E",
"7  c #20373D",
"8  c #25383B",
"9  c #21383C",
"0  c #21383D",
"q  c #2F3939",
"w  c #2F3B3B",
"e  c #2A3A3C",
"r  c #2D3B3C",
"t  c #2E3B3C",
"y  c #3C3E3B",
"u  c #43241A",
"i  c #44241A",
"p  c #44251A",
"a  c #45251B",
"s  c #46251B",
"d  c #49271D",
"f  c #4A271C",
"g  c #4C291D",
"h  c #4D291E",
"j  c #4E2A1E",
"k  c #512C20",
"l  c #542D20",
"z  c #542E21",
"x  c #562F22",
"c  c #583023",
"v  c #5A3123",
"b  c #5A3223",
"n  c #5A3124",
"m  c #5B3124",
"M  c #5B3224",
"N  c #5C3224",
"B  c #5C3324",
"V  c #5D3225",
"C  c #5E3325",
"Z  c #5F3425",
"A  c #5F3525",
"S  c #5F3426",
"D  c #403E3A",
"F  c #5C3D31",
"G  c #603426",
"H  c #603526",
"J  c #613526",
"K  c #623526",
"L  c #633527",
"P  c #613626",
"I  c #633626",
"U  c #623627",
"Y  c #633627",
"T  c #643727",
"R  c #653727",
"E  c #663828",
"W  c #673828",
"Q  c #693929",
"!  c #693A29",
"~  c #6A3A29",
"^  c #6B3B29",
"/  c #6B3B2A",
"(  c #6C3B2A",
")  c #6C3C2B",
"_  c #6E3D2A",
"`  c #6E3C2B",
"'  c #6E3D2B",
"]  c #6F3D2B",
"[  c #6D3F2D",
"{  c #6C3F2E",
"}  c #6F3F2E",
"|  c #723D2B",
" . c #703E2B",
".. c #723E2B",
"X. c #733E2B",
"o. c #723F2B",
"O. c #733F2B",
"+. c #713F2C",
"@. c #723E2C",
"#. c #733E2C",
"$. c #723F2C",
"%. c #733F2C",
"&. c #723E2D",
"*. c #723F2D",
"=. c #733F2D",
"-. c #743F2C",
";. c #743F2E",
":. c #613E30",
">. c #4F4139",
",. c #504239",
"<. c #534239",
"1. c #5B4438",
"2. c #71402C",
"3. c #72402C",
"4. c #73402C",
"5. c #73402D",
"6. c #73402E",
"7. c #74402C",
"8. c #74402D",
"9. c #75402D",
"0. c #75412D",
"q. c #76412D",
"w. c #77412D",
"e. c #77422D",
"r. c #74402E",
"t. c #77412E",
"y. c #77422E",
"u. c #78422E",
"i. c #79422E",
"p. c #79432E",
"a. c #7A432E",
"s. c #7A422F",
"d. c #7A432F",
"f. c #7B432F",
"g. c #79442F",
"h. c #7B442F",
"j. c #7C442F",
"k. c #7D442F",
"l. c #7D452F",
"z. c #6C4030",
"x. c #6F4231",
"c. c #6D4737",
"v. c #634538",
"b. c #664638",
"n. c #674638",
"m. c #794330",
"M. c #7D4530",
"N. c #7E4530",
"B. c #7F4530",
"V. c #7E4630",
"C. c #7F4630",
"Z. c #764936",
"A. c #7A4834",
"S. c #794A36",
"D. c #7A4A36",
"F. c #7B4A36",
"G. c #7C4A36",
"H. c #804630",
"J. c #814731",
"K. c #824731",
"L. c #824831",
"P. c #834831",
"I. c #834832",
"U. c #824833",
"Y. c #844831",
"T. c #844832",
"R. c #844932",
"E. c #854932",
"W. c #864932",
"Q. c #864A32",
"!. c #874A32",
"~. c #874A33",
"^. c #834934",
"/. c #804B36",
"(. c #864B34",
"). c #874C35",
"_. c #884A33",
"`. c #884B33",
"'. c #894B33",
"]. c #8A4B33",
"[. c #8A4C33",
"{. c #884B34",
"}. c #894D35",
"|. c #8A4C34",
" X c #8B4C34",
".X c #8B4D35",
"XX c #894D37",
"oX c #8C4C34",
"OX c #8C4D34",
"+X c #8D4D34",
"@X c #8D4C35",
"#X c #8D4D35",
"$X c #8D4F35",
"%X c #8E4E35",
"&X c #8F4E35",
"*X c #8F4F35",
"=X c #8D4E36",
"-X c #8F4F36",
";X c #904F36",
":X c #905036",
">X c #915036",
",X c #915037",
"<X c #925037",
"1X c #925137",
"2X c #925138",
"3X c #935138",
"4X c #935238",
"5X c #935239",
"6X c #92523B",
"7X c #945239",
"8X c #955339",
"9X c #95533A",
"0X c #96533A",
"qX c #94553B",
"wX c #96543A",
"eX c #96543B",
"rX c #97543B",
"tX c #97553B",
"yX c #98553B",
"uX c #98553C",
"iX c #99553C",
"pX c #99563D",
"aX c #9A563D",
"sX c #9A573D",
"dX c #99563E",
"fX c #9A563E",
"gX c #9A573E",
"hX c #9B573E",
"jX c #9C583F",
"kX c #9D583F",
"lX c #9A5740",
"zX c #9D5940",
"xX c #9E5940",
"cX c #9E5A41",
"vX c #9F5A41",
"bX c #A05A41",
"nX c #A05B42",
/* pixels */
"                                        uXlXlX%X X X X%X%X X%Xd.d.d.                                                                                                        ",
"                                        uXnXvX*X%X%X%X%X%X%X%X8.@.d.                                                                                                        ",
"                                        lXnXnX*X%X%X%X%X%X%X>X8.8.a.                                                                                                        ",
"                                        uXnXnX3X%X%X%X%X%X%X%X8.8.a.                                                                                                        ",
"                                        lXnXnX-X%X%X%X%X%X%X%X8.3.a.                                                                                                        ",
"                                        lXnXnX-X%X%X%X%X%X%X%X8.8.a.                                                                                                        ",
"                                        uXvXnX-X%X%X%X%X%X%X%X8.8.a.                                                                                                        ",
"                                        lXnXnX-X%X%X%X%X%X%X%X8.3.a.                                                                                                        ",
"                                        uXnXvX-X%X%X%X%X%X%X>X8.8.a.                                                                                                        ",
"                                        uXnXvX-X%X%X%X%X%X%X*X8.8.a.                                                                                                        ",
"                                        lXnXnX*X%X%X%X%X%X%X%X8.3.a.                                                                                                        ",
"          8.3...@...                    uXnXnX3X%X%X%X%X%X%X*X8.8.a.                                                                                                        ",
"          8.8.@.8.-.8.8.8.@.8...        uXnXnX>X%X%X%X%X%X%X%X8.8.m.                                                                                                        ",
"        O.8.d.K.l.d.8.8.8.8.8.8.8.8.8.8.m.^.XXQ.[.+X%X%X%X%X%X8.3.a.                                    ..8...                                                              ",
"        @.8.l.%X%X%X%X XQ.K.N.d.8.8.8.3.8.8.8.8.8.8.8.l.K.K. X8.8.m.                                    ..8.8.@.                                                            ",
"        -.8.N.%X%X%X%X%X%X%X%X%X%X X XQ.N.N.8.8.8.8.8.8.8.8.3.8.8.8.@.                                  8.8.8.8.3.                                                          ",
"        @.8.Q.%X%X%X%X%X%X%X%X%X%X%X%X%X%X%X%X%X XQ.N.N.d.-.@.8.8.8.8.@.8.8.3.@.8...                    -.8.l.8.8.8.                                                        ",
"        8.8.8.d.Q. X%X%X%X%X%X%X%X%X%X%X%X%X%X%X%X%X%X%X%X%X XQ.L.N.m.-.8.8.8.@.8.8.8.8.@.3.@...        8.8._._.d.8.8.@.                                                    ",
"        8.8.8.8.8.8.8.K.Q.%X%X%X%X%X%X%X%X%X%X%X%X%X%X%X%X%X%X%X%X%X%X%X%X XQ.K.l.8.@.8.8.8.8.8.8.8.8.@.8.8.%X%X_.d.-.8.-.                                                  ",
"        8.8.8.8.8.8.8.8.@.8.l.Y. X%X%X%X%X%X%X%X%X%X%X%X%X%X%X%X%X%X%X%X%X%X%X%X%X%X%X_.Q.L.a.d.8.8.8.8.8.8.%X%X%X%Xl.8.8.-.                                                ",
"      ..8.d.d.d.8.8.8.8.8.@.8.3.O.d.H._.%X%X%X%X%X%X%X%X%X%X%X%X%X%X%X%X%X%X%X%X%X%X%X%X%X%X%X%X%X%XQ.K.l.N.%X%X%X%X%XK.8.8.-.                                              ",
"      7.8.N.%X%X%X%X%X_.Q.Q.K.N.l.d.8.8.8.l.Q.+X%X%X%X%X%X%X%X%X%X%X%X%X%X%X%X%X%X%X%X%X%X%X%X%X%X%X%X%X%X%X%X%X%X%X%X%X(.8.8.8.@.                                          ",
"      @.8.K.%X%X%X%X%X%X%X%X%X%X%X%X%X%X_._.Q.K.Q.;X3X0X0X;X%X%X%X%X%X%X%X%X%X%X%X%X%X%X%X%X%X%X%X%X%X%X%X%X%X%X%X%X%X%X%XoXd.-.8.7.                                        ",
"      8.8.Q.%X%X%X%X%X%X%X%X%X%X%X%X%X%X;X%X%X%X%X%X%X%X%X3XuXuXuXrX0X0X>X%X%X%X%X%X%X%X%X%X%X%X%X%X%X%X%X%X%X%X%X%X%X%X%X%X%Xl.8.8.@.                                      ",
"      8.8. X%X%X%X%X%X%X%X%X%X%X%X%X%X%X%X%X%X%X%X%X%X%X%X%X%X%X%X3X0XuXzXnXzXuX0X0X;X%X%X%X%X%X%X%X%X%X%X%X%X%X%X%X%X%X%X%X%X%XK.@.8.8.                                    ",
"      8.-.%X%X%X%X%X%X%X%X%X%X%X%X%X%X%X%X%X%X%X%X%X%X%X%X%X%X%X%X%X%X%X%X>X0XuXzXnXnXnXzXuXrX0X>X%X%X%X%X%X%X%X%X%X%X%X%X[. XQ.Q.N.8.8.8...                                ",
"    ..8.d.%X%X%X%X%X%X%X%X%X%X%X%X%X%X%X%X%X%X%X%X%X%X%X%X%X%X%X%X%X%X%X%X%X%X%X%X%X3XuXuXyX0X3X%X XL.K.K.N.l.a.d.d.-.8.8.8.@.8.8.8.8.8.8.8.@.                              ",
"    8.8.l.%X%X%X%X%X%X%X%X%X%X%X%X%X%X%X%X%X%X%X%X%X%X%X%X%X%X%X%X%X%X%X%X%X%X%X%X%X%X%X;X%X%X%X%X X).Q.N.N.a.8.@.8.@.8.8.8.8.8.8.8.8.8.8.8.-.@.                            ",
"    8.8.L.%X%X%X%X%X%X%X%X%X%X%X%X%X%X%X%X%X%X%X%X%X%X%X%X%X%X%X%X%X%X%X%X%X%X%X%X%X%X%X%X%X%X%X%X%X%X%X%X%X%X%X[._.Q.L.N.m.d.@.-.8.8.8.8.8.8.8.@.                          ",
"    @.8.Q.%X3XrXuX0X3X>X%X%X%X%X%X%X%X%X%X%X%X%X%X%X%X%X%X%X%X%X%X%X%X%X%X%X%X%X%X%X%X%X%X%X%X%X%X%X%X%X%X%X%X%X%X%X%X%X%X%X%X+X_.Q.K.N.l.8.8.8.8.8.                        ",
"    8.8._.%X%X%X>XrXuXzXzXzXjXuX0X>X3X%X%X>X%X%X%X%X%X%X%X%X%X%X%X%X%X%X%X%X%X%X%X%X%X%X%X%X%X%X%X%X%X%X%X%X%X%X%X%X%X%X%X%X%X%X%X%X%X%X%X%X%XQ.d.8.8...                    ",
"    8.8. X%X%X%X%X%X%X%X%X%X;X3X0X0XuXuXuXuXuXuX3X3X%X%X%X%X%X%X%X%X%X%X%X%X%X%X%X%X%X%X%X%X%X%X%X%X%X%X%X%X%X%X%X%X%X%X%X%X%X%X%X%X%X%X%X%X%X%X Xf.8.8.-.                  ",
"  3.8.8.8.8.N.K._.%X%X%X%X%X%X%X%X%X%X%X%X%X%X>X>X3X0XrX0X0X>X0X;X%X%X%X%X%X%X%X%X%X%X%X3X3X3X3XuX3X*X%X%X%X%X%X%X%X%X%X%X%X%X%X%X%X%X%X%X%X%X%X%X%XN.8.8.8.                ",
"  @.8.8.8.8.-.8.-.8.8.K.Q._.%X%X%X%X%X%X%X%X%X%X%X%X%X%X%X%X%X%X;X3X3X;X3X%X>X%X%X%X%X%X%X%X%X%X%X3XuXlXzXuXrXrX>X%X%X%X%X%X%X%X%X%X%X%X%X%X%X%X%X%X%XQ.8.8.8.              ",
"  -.8.8.8.8.8.8.8.8.8.8.8.8.m.m.K.Q.%X%X%X%X%X%X%X%X%X%X%X%X%X%X%X%X%X%X%X%X%X%X%X%X%X%X%X%X%X%X%X%X%X%X%X3XuXuXzXnXzXjXuXrX3X*X%X%X%X%X%X%X%X%X%X%X%X%X_.8.8.8.-.          ",
"  @.-.Y.%X%X%X%X%X%X%X%X%X%X%X%X%X%X%X%X%X%X%X%X%X%X%X%X%X%X%X%X%X%X%X%X%X%X%X%X%X%X%X%X%X%X%X%X%X%X%X%X%X%X%X%X%X>XrXuXzXnXzXzXuX0X%X%X%X%X%X%X%X%X%X%X%X%Xd.8.8...        ",
"  8.8.S.y ,.b.Z. X%X%X%X=X%X%X%X%X%X%X%X%X%X%X%X%X%X%X%X%X%X%X%X%X%X%X%X%X%X%X%X%X%X%X%X%X%X%X%X%X%X%X%X%X%X%X%X%X%X%X%X%X%X%X%X%X%X%X%X%X%X%X%X%X%X%X%X%X%X%XN.8.8.8.      ",
"  8.-.(.3 3 : 3 3 t D ,.b.F. X=X%X%X%X%X%X%X%X%X%X%X%X%X%X%X%X%X%X%X%X%X%X%X%X%X%X%X%X%X%X%X%X%X%X%X%X%X%X%X%X%X%X%X%X%X%X%X%X%X%X%X%X%X%X%X%X%X%X%X%X%X%X%X%X%Xl.8.8.@.    ",
"  8.8.8.8 : 3 3 3 3 9 3 3 9 9 t c.%X%X%X%X%X%X%X%X%X%X%X%X%X%X%X%X%X%X%X%X%X%X%X%X%X%X%X%X%X%X%X%X%X%X%X%X%X%X%X%X%X%X%X%X%X%X%X%X%X%X%X%X%X%X%X%X%X%X%X%X XN.8.@.8.8.3.@.  ",
"-.8.8.8.w 9 3 9 3 9 3 3 3 : 6 3 n.%X%X%X%X%X%X%X%X%X%X%X%X%X%X%X%X%X%X%X%X%X%X%X*X3X3X>X%X%X%X%X%X%X%X%X%X%X%X%X%X%X%X%X%X%X%X%X%X%X%X%X%X%X%X%X%X%X%XL.d.@.3.8.8.3.        ",
"        w : : 3 9 3 3 3 3 3 3 3 F d.l.K.L._.%X%X%X%X%X%X%X%X%X%X%X%X%X%X%X%X%X%X%X%X%X0XuXuXuX3X;X;X%X%X%X%X%X%X%X%X%X%XQ.Q._.%X%X%X%X%X%X%X%X%X_.N.8.8.8.8.4.4.            ",
"        ; : 9 3 3 3 3 9 3 9 9 3 :.@.8.8.8.8.8.8.d.H.Q.Q._.%X%X;X%X%X%X%X%X%X%X%X%X%X%X%X%X%X3XuXzXzXuXeX3X3X%X%X%X%X%X%X%XN.8.@.d.l.K.Q. X_.K.d.-.8.8.3.3.                  ",
"            3 3 9 3 9 3 3 : 3 3   @.8...r.3.8.8.8.8.8.8.8.8.d.l.K.Q. X%X%X%X%X%X%X%X%X%X%X%X%X%X%X3XuXzXzXnXzXuXyX3X%X%X%X%XQ.8.8.8.8.8.3.8.8.8.8.3.                        ",
"            : 3 3 3 3 3 3   : 7         lXuX3XQ.l.d.8.8.8.8.8.8.-.8.8.8.d.l.l.Q._.+X%X%X%X%X%X%X%X%X%X%X,X0XqX3X0X3X0X3X;X%X;X_.8.8.8.8.8.8.@.@.                            ",
"            + 3 3 9 : 3 3     3         uXnXnX;X%X%X[._._.L.H.8.8.8.8.8.8.8.8.8.3.8.d.d.l.Y. X X%X%X%X%X%X%X%X=X%X%X%X^.).+XL.d.8.8.8.8.@.                                  ",
"              3 3 3 X : 3     :         lXnXnX;X%X%XL.+X+X%X>X8.8.m.    @.@.4.8.8.8.8.8.8.-.8.8.8.N.%X%X%X%X%X Xc.,.t 3 x.8.8.O.8.3.@.                                      ",
"              9 9 :   3 9               uXzXnX%X%X%Xa.[.%X%X%X8.8.d.                  ..@.3.8.8.8.N.%X%XF.1.y 9 3 3 3 3 } 8.8...                                            ",
"              : 3 1   : :               uXuXzX,X%X+X8.[.%X%X%X8.8.d.                          @.8.L.G.e 9 3 3 3 9 3 3 9 3.                                                  ",
"              : : :   + :               3XrXnX-X*X).3. X%X%X%X8.3.d.                          8.8.Q.S.: 9 3 3 3 3 3 : 7                                                     ",
"                3 +     +               >X3XvX-X*XC.@.(.%X%X_.8.8.d.                          8.8.K.x.3 3 3 3 9 3 9 : :                                                     ",
"                3 :     +               3X*XvX-X%Xd.8.Q.%X%XK.) 8.d.                          8.8.3.{ : 3 3 3 3 3 6 : :                                                     ",
"                7                       >X*XvX-X X8.8.Q.%X%Xd./ 4.d.                        @.3.8.3.} : 9 7 3 9 3 9 ;                                                       ",
"                +                       >X%XlX*XQ.3.8.Q.%X X8.R 8.d.                        @.3.      : + + 3 3 3 3                                                         ",
"                                        >X%XjX*XN.8.@.Q.%XN.8.L 8.d.                                  3   + : : 9 3                                                         ",
"                                        3X*XrX*Xd.8.8.L.%X8.8.B 3.d.                                  :   + 3 + 3 3                                                         ",
"                                        >X*XrX X@.8.8.K.Q.@.8.B ..d.                                      1 3   3 3                                                         ",
"                                        3X*X3XL.8.8.@.K.l.8.8.B / )                                       + +   9 :                                                         ",
"                                        >X%X>XN.8.8.8.K.8.8.8.n L L                                       +     : +                                                         ",
"                                        3X*X%X8.8.8.8.8.8.8.8.B v L                                       +     3                                                           ",
"                                        >X*X%X8.8.8.8.8.8.8.8.n n L                                       X     3                                                           ",
"                                        >X%X%Xa.8.8.8.8.8.8.8.B n L                                             :                                                           ",
"                                        >X%X%X8.8.8.8.8.8.8.8.n n L                                             +                                                           ",
"                                        >X>X%X8.8.8.8.8.8.8.8.B n L                                                                                                         ",
"                                        >X*X%X^ 8.8.8.8.8.8.8.n n L                                                                                                         ",
"                                        3X*X%XT 4.3.8.8.8.@.8.n n L                                                                                                         ",
"                                        >X*X%XL ) 3.8.8.8.W 8.B n L                                                                                                         ",
"                                        >X*X%XL R 8.8.8.8.n @.B n L                                                                                                         ",
"                                        >X%X%XS S 3.8.8.) v ) n n L                                                                                                         ",
"                                        >X%X%XS v ) 8.8.) v T B n S                                                                                                         ",
"                                        3X%X%XS n / 8.8.W v n v v S                                                                                                         ",
"                                        *X%X%XS n L 8.8.L n n l n S                                                                                                         ",
"                                        L.%X%Xn n B 8.8.S n n h n n                                                                                                         ",
"                                        N._.%XB n n ) 8.B n n a c c                                                                                                         ",
"                                        N.K.%XB n n W @.n n v a l l                                                                                                         ",
"                                        N.8.@Xn n n L ( n n n u f l                                                                                                         ",
"                                        N.8.(.B n n v / n n n i a h                                                                                                         ",
"                                        C.8.N.B n n n B n n n i u f                                                                                                         ",
"                                        N.8.3.B n n n n n n n i u f                                                                                                         ",
"                                        N.8.-.B n n n n n n n i u f                                                                                                         ",
"                                        N.-.-.B n n n n n n n i u f                                                                                                         ",
"                                        C.8.8.v v n n n n n n u u f                                                                                                         ",
"                                        N.8.8.S n n n n n n v a u f                                                                                                         ",
"                                        N.8.-.B n n n n n n n u u f                                                                                                         ",
"                                        l.8.8.B n n n n n n v a u f                                                                                                         ",
"                                        N.8.8.B m m m m n n n u u f                                                                                                         ",
"                                        N.8.8.v x m m m n n v a u f                                                                                                         ",
"                                        L.8.8.L n B B B B B n a a h                                                                                                         "
};
