/* XPM */
static char *Skeleton1648979497[] = {
/* columns rows colors chars-per-pixel */
"102 50 120 2 ",
"   c None",
".  c #000000",
"X  c #080702",
"o  c #0D0B04",
"O  c #120F06",
"+  c #161207",
"@  c #1C170A",
"#  c #1F190A",
"$  c #231D0D",
"%  c #27200D",
"&  c #2C250E",
"*  c #2E2712",
"=  c #362D15",
"-  c #393016",
";  c #3E3519",
":  c #433716",
">  c #463A17",
",  c #463A18",
"<  c #4A3D1B",
"1  c #4F411A",
"2  c #50411A",
"3  c #5B4B1E",
"4  c #67582D",
"5  c #725E26",
"6  c #6B5C31",
"7  c #7F6E3B",
"8  c #8B722E",
"9  c #917935",
"0  c #897740",
"q  c #8C7A43",
"w  c #8F7E4C",
"e  c #927E45",
"r  c #9E8234",
"t  c #A38636",
"y  c #AF8F3A",
"u  c #B2923B",
"i  c #96844F",
"p  c #99854A",
"a  c #A08A4A",
"s  c #AB9041",
"d  c #B79945",
"f  c #BE9E45",
"g  c #B69B4C",
"h  c #A99454",
"j  c #B7A15D",
"k  c #BEA762",
"l  c #B8A670",
"z  c #C4A242",
"x  c #C9A647",
"c  c #C7A64B",
"v  c #C9A749",
"b  c #CDAB4C",
"n  c #D3B255",
"m  c #D6B659",
"M  c #DABA5D",
"N  c #CCB56A",
"B  c #D0B667",
"V  c #D7B961",
"C  c #DCBC64",
"Z  c #DFC065",
"A  c #DEC26E",
"S  c #DFC472",
"D  c #E0C166",
"F  c #E5C66C",
"G  c #E6C86E",
"H  c #E2C674",
"J  c #EACD73",
"K  c #E0C77E",
"L  c #E6CA7B",
"P  c #E9CE7E",
"I  c #EDD077",
"U  c #EDD27D",
"Y  c #F2D57D",
"T  c #EFD484",
"R  c #EED58B",
"E  c #F1D685",
"W  c #F6DA83",
"Q  c #F8DD86",
"!  c #F0D78C",
"~  c #F4DB8D",
"^  c #FADF88",
"/  c #EDD692",
"(  c #EED991",
")  c #E1D19D",
"_  c #EED799",
"`  c #EED99B",
"'  c #F2DB95",
"]  c #F1DB9B",
"[  c #FCE18B",
"{  c #FCE393",
"}  c #F7E09C",
"|  c #FCE59B",
" . c #F1DEA4",
".. c #F2DFAA",
"X. c #EFDFB3",
"o. c #F5E1A3",
"O. c #FBE5A1",
"+. c #FEE9A3",
"@. c #F2E0AB",
"#. c #F9E6AA",
"$. c #FEEBAB",
"%. c #EFE2B7",
"&. c #EFE1B8",
"*. c #F2E2B4",
"=. c #FFEDB3",
"-. c #F2E4BA",
";. c #FEEFBA",
":. c #FFF0BD",
">. c #F7EAC3",
",. c #FCEFC3",
"<. c #F0E7C9",
"1. c #F5EACA",
"2. c #FFF2C4",
"3. c #FEF3CB",
"4. c #FDF4D3",
"5. c #FEF6DB",
"6. c cornsilk",
"7. c #FBF6E2",
"8. c #FFF9E4",
"9. c #FFFBEE",
/* pixels */
"                                                                                                                                                                                                            ",
"                                                          6.8.7.9.9.9.9.9.9.9.9.9.8.6.                                                                                                                      ",
"                                                    5.9.9.9.9.9.9.9.9.9.9.9.9.9.9.9.9.9.9.8.5.                                                                                                              ",
"                                                8.9.9.9.9.9.9.9.9.9.9.9.9.9.9.9.9.9.9.9.9.9.9.9.5.                                                                                                          ",
"                                            8.9.9.9.9.9.9.9.9.6.4.3.2.2.2.2.2.2.2.2.2.3.3.6.8.9.9.9.5.                                                                                                      ",
"                                        5.9.9.9.9.9.9.8.4.2.2.2.2.2.2.2.2.2.2.2.2.2.2.2.2.2.2.3.4.5.9.7.                                                                                                    ",
"                                      7.9.9.9.9.9.6.2.2.2.2.2.2.2.2.2.2.2.2.2.2.2.2.2.2.2.2.2.2.2.2.3.4.9.5.                                                                                                ",
"                                    7.9.9.9.9.6.3.2.2.2.2.2.2.2.2.2.2.2.2.2.2.2.2.2.2.2.2.2.2.2.2.2.2.2.2.4.5.                                                                                              ",
"                                  8.9.9.9.9.3.2.=.$.2.2.:.$.$.$.$.$.;.:.2.2.2.2.2.2.2.2.2.2.2.2.2.2.2.2.2.2.3.$.                                                                                            ",
"                                7.9.9.9.6.2.:.| { =.+.[ [ [ [ | +.$.=.=.:.2.2.2.2.2.2.2.2.2.2.2.2.2.2.2.2.2.2.[ |                                                                                           ",
"                              5.9.9.9.6.2.=.[ [ { [ [ | $.:.2.2.2.2.2.2.2.2.2.2.2.2.2.2.2.2.2.2.2.2.2.2.2.2.2.{ {                                                                                           ",
"                              9.9.9.3.2.$.[ [ [ | $.2.2.2.2.2.2.2.2.2.2.2.2.2.2.2.2.2.2.2.2.2.2.2.2.2.2.2.2.2.{ [ {                                                                                         ",
"                            9.9.9.3.2.$.[ [ $.:.2.2.2.2.2.2.2.:.:.2.2.2.2.2.2.2.2.2.2.2.2.2.2.2.2.2.2.2.2.2.2.{ [ [ O.                                                                                      ",
"                          7.9.9.4.2.;.[ $.2.2.2.2.2.:.$.| [ [ [ [ [ [ { $.:.2.2.2.2.2.2.2.2.2.2.2.2.2.2.2.2.2.{ [ [ [                                                                                       ",
"                        5.9.9.4.2.2.$.2.2.2.2.2.$.{ [ [ [ [ [ [ [ [ [ [ [ [ | :.2.2.2.2.2.2.2.2.2.2.2.2.2.2.2.[ [ [ [ |                                                                                     ",
"                        9.9.6.2.2.2.2.2.2.2.=.{ [ [ Y I F F J W [ [ [ [ [ [ [ [ =.2.2.2.2.2.2.2.2.2.2.2.2.2.;.[ [ ^ ^ {                                                                                     ",
"                      7.9.8.2.2.2.2.2.2.2.+.[ [ D b z z z z z z m Y [ [ [ [ [ [ [ =.2.2.2.2.2.2.2.2.2.2.2.2.=.[ [ [ [ [                                                                                     ",
"                      9.9.3.2.2.2.2.2.:.| [ 7 @ @ % : 5 y z z z z z G [ I Y [ [ [ [ :.2.2.2.2.2.2.2.2.2.2.2.$.[ [ [ [ [ |                                                                                   ",
"                    7.9.3.2.2.2.2.2.2.| L = . . . . . . . > u z z z z Y [ b [ [ [ [ +.2.2.2.2.2.2.2.2.2.2.2.+.[ [ [ [ [ {                                                                                   ",
"                    9.8.2.2.2.2.2.2.$.L $ . . . . . . . . . X 8 z z z b [ m M [ [ [ [ 2.2.2.2.2.2.2.2.2.2.2.{ [ [ [ [ [ [   4.                                                                              ",
"                  7.9.3.2.2.2.2.2.:.[ = . . . . . . . . . . . . 8 z z z I Z z W [ [ [ :.2.2.2.2.2.2.2.2.2.2.[ [ [ [ [ [ [     5.5.4.4.                                                                      ",
"                  9.4.2.2.2.2.2.2.+.9 . . . . . . . . . . . . . + u z z m F z G [ [ [ ;.2.2.2.2.2.2.2.2.2.$.[ [ [ [ [ [ [       3.4.5.5.4.                                                                  ",
"                7.9.2.2.2.2.2.2.2.{ @ . . . . . . . . . . . . . . 3 z z b Z z D [ [ [ =.2.2.2.2.2.2.2.2.2.| [ [ [ [ [ [ [         | +.3.5.5.4.                                                              ",
"                9.4.2.2.2.2.2.2.;.N . . . . . . . . . . . . . . . + z z z n z D [ [ [ 2.2.2.2.2.2.2.2.2.:.[ [ [ [ [ [ [ [           | [ | 2.4.6.5.4.                                                        ",
"              5.8.2.2.2.2.2.2.2.=.h . . . . . . . . . . . . . . . . u z z z z G [ [ +.2.2.2.2.2.2.2.2.2.+.[ [ [ [ [ [ [ [ 3.          +.[ [ =.2.4.5.4.5.4.4.                                                ",
"              9.3.i 2.2.2.2.2.2.=.j . . . . . . . . . . . . . . . . t z z z z Q [ [ :.2.2.2.2.2.2.2.2.:.[ [ ^ [ [ [ [ [ [ 3.5.4.        | [ [ $.2.3.5.3.3.5.5.4.                                            ",
"            5.6.a . ) 2.2.2.2.2.:.E X . . . . . . . . . . . . . . . y z z z C [ [ +.2.2.2.2.2.2.2.2.2.| [ [ [ [ [ [ [ [ { :.3.4.4.        | [ [ $.2.3.5.,.| 2.4.5.4.                                        ",
"            5.B o . l 2.2.2.2.2.2.| 4 . . . . . . . . . . . . . . o z z z x W [ { 2.2.2.2.2.2.2.2.2.=.[ [ [ [ [ [ [ [ [ | [ :.2.4.5.        { [ [ =.2.2.5.;.[ +.3.4.4.                                      ",
"            } , . . w 2.2.2.2.2.2.;.W * . . . . . . . . . . . . . , z z z I [ { 2.2.2.2.2.2.2.2.2.:.[ [ [ [ [ [ [ [ [ [ | [ [ :.2.3.4.        [ [ [ :.2.3.4.+.[ | 2.3.6.4.                                  ",
"          ,.g . . . 6 2.2.2.2.2.2.2.+.T ; . . . . . . . . . . . . r z z J [ | 2.2.2.2.2.2.2.2.2.:.{ [ [ [ [ [ [ [ [ [ [ +.[ [ { 2.2.4.4.      { [ [ | 2.2.3.4.{ [ { 2.2.5.5.4.4.                            ",
"          ~ 1 . X . < 2.2.2.2.2.2.2.2.+.[ 0 O . . . . . . . . . 2 z b Y [ =.2.2.2.2.2.2.2.2.2.:.[ [ [ [ [ [ [ [ [ [ [ {   | [ [ $.2.2.4.        [ [ [ :.2.2.4.;.[ [ +.2.2.6.:.4.5.4.                        ",
"          m & 9 s + & 2.2.2.2.2.2.2.2.2.;.{ W e - X . . . . . & b G [ $.2.2.2.2.2.2.2.2.2.2.$.[ [ [ [ [ [ [ [ [ [ [ [ +.<.>.[ [ [ :.2.3.4.      { [ [ +.2.2.2.4.| [ [ $.2.2.4.{ :.4.4.                      ",
"        +.c F [ [ d & #.2.2.2.2.2.2.2.2.2.2.=.+.{ W k p q q h T +.=.2.2.2.2.2.2.2.2.2.2.=.| [ [ [ [ [ [ [ [ [ [ [ [ { 1.-.R | [ [ $.2.2.3.      | [ [ [ 2.2.2.3.  [ [ { 2.2.3.:.{ =.3.4.4.4.                ",
"        { [ [ =.| W f ( 2.2.2.2.2.2.2.2.2.2.2.2.2.:.:.:.;.;.2.2.2.2.2.2.2.2.2.2.2.2.=.| [ [ [ [ [ [ [ [ [ [ [ [ [ [ #.] E   | [ [ { 2.2.2.4.      [ [ [ =.2.2.3.  | [ [ $.2.2.4.[ [ ;.2.4.2.4.4.            ",
"        } { :.2.2.{ [ U 2.2.2.2.2.2.2.$.| | $.$.;.2.2.2.2.2.2.2.2.2.2.2.2.2.2.=.| { [ [ [ [ [ [ [ [ [ [ [ [ [ [ [ { ` T `     [ [ [ :.2.2.3.      { [ [ $.2.2.2.3.  [ [ | 2.2.3.=.[ [ 2.2.4.{ 2.4.4.        ",
"      5.| :.2.2.2.:.{ | 2.2.2.2.2.2.2.2.$.[ [ [ [ [ [ | +.$.$.;.=.$.$.+.| { [ [ [ [ [ [ [ [ [ [ [ [ [ [ [ [ [ [ [ o.T (       { [ [ $.2.2.3.      { [ [ | 2.2.2.3.  [ [ [ :.2.2.3.{ [ +.2.3.;.{ :.3.4.      ",
"      4.2.2.2.2.2.2.:.{ 2.2.2.2.2.2.2.2.2.| [ [ [ W W [ [ [ [ [ [ [ [ [ [ [ [ [ ^ [ [ [ [ [ [ [ [ [ [ [ [ [ [ [ #.E E         | [ [ $.2.2.2.      | [ [ { 2.2.2.3.  { [ [ =.2.2.3.} [ { 2.2.3.{ [ 2.3.4.    ",
"      3.2.2.2.2.2.2.2.:.2.2.2.2.2.2.2.2.2.2.| [ [ [ n n F W [ [ [ [ [ [ [ [ [ [ [ [ [ [ [ [ [ [ [ [ [ [ [ [ [ +.] E /         | [ [ | 2.2.2.      | [ [ { 2.2.2.2.  | [ [ $.2.2.3.  [ [ =.2.2.=.[ | 2.3.    ",
"    4.2.2.2.2.2.2.2.2.2.2.2.2.2.2.2.2.2.2.2.2.| [ [ [ n z z n J Q [ [ [ [ [ [ [ [ [ [ [ [ [ [ [ [ [ [ [ [ [ #.-.R T `         } [ [ | 2.2.2.      | [ [ { 2.2.2.2.  O.[ [ +.2.2.2.  { [ O.2.2.  { [ :.2.3.  ",
"    3.2.2.2.2.2.2.2.2.2.2.2.2.2.2.2.2.2.2.2.2.:.{ [ [ Q x z n x x D W [ [ J G [ [ [ [ [ [ [ [ [ [ [ [ [ [ #.-.*.T E           | [ [ | 2.2.2.      } [ [ { 2.2.2.2.  | [ [ +.2.2.2.  } [ { 2.2.3.| [ $.2.3.  ",
"    2.2.2.2.2.2.2.2.2.2.2.2.2.2.2.2.=.2.2.:.2.2.{ [ [ m z A -.*.F x z M Y M z G [ [ [ [ [ [ [ [ [ [ [ |   &.-...T R           | [ [ { 2.2.2.      | [ [ [ 2.2.2.,.  O.[ [ | 2.2.2.  | [ { 2.2.2.  [ | 2.3.  ",
"    =.2.2.2.2.2.2.2.2.2.2.2.2.2.2.=.[ =.2.| ;.;.[ [ M x L   -.-.-.` H b z x z z m Y [ [ [ [ [ [ [ { ' T   &.-.o.T R           } [ [ | 2.2.2.      { [ [ { 2.2.2.>.  | [ [ +.2.2.2.  } [ { 2.2.2.  [ { 2.2.  ",
"  :.{ | [ $.:.#.2.2.2.2.2.:.{ =.:.{ [ $.$.[ | | [ F z L     -.-.-. .T T R S m b z z b C G Y { #.-.' T T ] -.-. .T R           { [ [ | 2.2.2.      { [ [ | 2.2.2.2.  | [ [ $.2.2.2.  | [ [ 2.2.2.  [ [ 2.2.  ",
"  2.+.$.$.[ { +.$.2.2.2.:.{ [ [ [ [ [ { [ [ [ [ W z H         -.-.@.T T / &.-.-. .T T T (   %.-.-.] T T _ &.-. .E R           { [ [ $.2.2.2.      ^ [ [ +.2.2.2.    } [ [ $.2.2.>.  | [ { 2.2.2.  [ [ 2.2.  ",
"  :.$.6.=.| 3.2.[ :.:.$.{ E T U [ U F [ [ [ G [ m V           -.-.*.T T R -.-.-.-.T T T (   -.-.-.o.E T / %.-. .T E           [ [ [ =.2.2.>.      [ [ [ $.2.2.2.    [ [ [ ;.2.2.2.  { ^ | 2.2.    [ { 2.2.  ",
"  $.2.8.$.$.9.2.[ $.2.[ =.5.$.T Z / ~ M Y M z M b             -.-.-.T T T *.-.-.-.R T T R     -.-.*.E T R %.-.*.T T         O.[ [ [ :.2.2.2.    | [ [ [ ;.2.2.2.    [ [ [ ;.2.2.    [ [ +.2.2.  O.[ { 2.2.  ",
"  { 3.2.+.;.6.2.{ =.:.[ 5.4.=.{ ` 2.| P S $.n x S             &.-.-.! T T ` -.-.-.' T T T     -.-.-.T T E X.-.-.T T _       | [ [ [ 2.2.2.2.    { [ [ [ :.2.2.2.  O.[ [ [ 2.2.2.    [ [ $.2.2.  | [ +.2.2.  ",
"      $.} 2.2.$.[ =.$.{ 3.2.+.{ 2.2.| ~ 2.{ F b               -.-.-.] E T R -.-.-. .T T T '   -.-.-.! T T  .-.-.! T /       [ [ [ { 2.2.2.      [ [ [ { 2.2.2.,.  { [ [ | 2.2.2.  | [ [ ;.2.>.  { [ $.2.>.  ",
"                    +.+.;.| { | :.+.[ | ;.[ W C                       _ _           _ _ _             _ _         _ ]       O.O.O.              O.O.O.            O.O.O.            O.O.        } O.        ",
"                                          | |                                                                                                                                                               "
};
