/* XPM */
static char *TileBrown1649016265[] = {
/* columns rows colors chars-per-pixel */
"128 128 24 1 ",
"  c #201209",
". c #221309",
"X c #231309",
"o c #22130A",
"O c #22140A",
"+ c #24140A",
"@ c #26150A",
"# c #28160B",
"$ c #2B170B",
"% c #2A180B",
"& c #2B180B",
"* c #2D190B",
"= c #2C180C",
"- c #2F1B0C",
"; c #321B0D",
": c #331D0D",
"> c #341C0D",
", c #351E0E",
"< c #381F0F",
"1 c #38200F",
"2 c #3A200F",
"3 c #3B210F",
"4 c #3B2110",
"5 c #3C2110",
/* pixels */
"44444444444444444444444444444444444444444444444444444444444444444444444444444444444444444444444444444444444444444444444444444444",
"44444444444444444444444444444444444444444444444444444444444444444444444444444444444444444444444444444444444444444444444444444444",
"44444444444444444444444444444444444444444444444444444444444444444444444444444444444444444444444444444444444444444444444444444444",
"44444444444444444444444444444444444444444444444444444444444444444444444444444444444444444444444444444444444444444444444444444444",
"44444444444444444444444444444444444444444444444444444444444444444444444444444444444444444444444444444444444444444444444444554444",
"4444444444444444444444444444444444444444444444444444444444444444444444444444444444444444444444444444444444444444444444444<,;<444",
"4444444444444444444444444444444444444444444444444444444444444444444444444444444444444444444444444444444444444444444444444=..+,44",
"4444444444444444444444444444444444444444444444444444444444444444444444444444444444444444444444444444444444444444444444444@@.O=44",
"444444444444444444444444444444444444444444444444444444444444444444444444444444444444444444444444444444444444444444444444<@O.@*44",
"4444444444444444444444444444444444444444444444444444444444444444444444444444444444444444444444444444444444444444444444442=OO@,44",
"44444444444444444444444444444444444444444444444444444444444444444444444444444444444444444444444444444444444444444444444432,,<444",
"44444444444444444444444444444444444444444444444444444444444444444444444444444444444444444444444444444444444444444444444455555444",
"44444444444444444444444444444444444444444444444444444444444444444444444444444444444444444444444444444444444444444444444444444444",
"44444444444444444444444444444444444444444444444444444444444444444444444444444444444444444444444444444444444444444444444444444444",
"44444444444444444444444444444444444444444444444444444444444444444444444444444444444444444444444444444444444444444444444444444444",
"44444444444444444444444444444444444444444444444444444444444444444444444444444444444444444444444444444444444444444444444444444444",
"44444444444444444444444444444444444544444444444444444444444444444444444444444444444444444444444444444444444444444444444444444444",
"4444444444444444444444444242,=$*,54<44444444444444444444444444444444444444444444444444444444444444444444444444444444444444444444",
"44444444444444444444444424,@.@.@o+:44<544444444444444444444444444444444444444444444444444444444444444444444444444444444444444444",
"4444444444444444444444424,@..OO.o..,44444444444444444444444444444444444444444444444444444444444444444444444444444444444444444444",
"4444444444444444444444224#.OO.OO@..@,5244444444444444444444444444444444444444444444444444444444444444444444444444444444444444444",
"444444444444444444444424;+.+O@.@OOO.:4424444444444444444444444444444444444444444444444444444444444444444444444444444444444444444",
"444444444444444444444425=O.O+OOO@...*,424444444444444444444444444444444444444444444444444444444444444444444444444444444444444444",
"444444444444444444444425#..+OO.@OO..=<424444444444444444444444444444444444444444444444444444444444444444444444444444444444444444",
"444444444444444444444424=O.OOOO@OO@.%,424444444444444444444444444444444444444444444444444444444444444444444444444444444444444444",
"444444444444444444444425=@..@.O.O@O.=3524444444444444444444444444444444444444444444444444444444444444444444444444444444444444444",
"44444444444444444444444<5@.@OOOOOO@@,5254444444444444444444444444444444444444444444444444444444444444444444444444444444444444444",
"44444444444444444444444<3,O.@.@OOOO=35254444444444444444444444444444444444444444444444444444444444444444444444444444444444444444",
"44444444444444444444444444:O.@OOO.;242444444444444444444444444444444444444444444444444444444444444444444444444444444444444444444",
"4444444444444444444444444444#=.$*22224444444444444444444444444444444444444444444444444444444444444444444444444444444444444444444",
"44444444444444444444444444444455444444444444444444444444444444444444444444444444444444444444444444444444444444444444444444444444",
"44444444444444444444444444444445444444444444444444444444444444444444444444444444444444444444444444444444444444444444444444444444",
"44444444444444444444444444444444444444444444444444444444444444444444444444444444444444444444444444444444444444444444444444444444",
"44444444444444444444444444444444444444444444444444444444444444444444444444444444444444444444444444444444444444554444444444444444",
"44444444444444444444444444444444444444444444444444444444444444444444444444444444444444444444444444444444444445554444444444444444",
"4444444444444444444444444444444444444444444444444444444444444444444444444444444444444444444444444444444455<44,,<<444444444444444",
"44444444444444444444444444444444444444444444444444444444444444444444444444444444444444444444444444444444<54,#o+.@$,4444444444444",
"4444444444444444444444444444444444444444444444444444444444444444444444444444444444444444444444444444444244#OO+OO@.O;5,4444444444",
"44444444444444444444444444444444444444444444444444444444444444444444444444444444444444444444444444444424,=.O+@O+...O,55544444444",
"44444444444444444444444444444444444444444444444444444444444444444444444444444444444444444444444444444242,.+OO.+OO@O..<<444444444",
"44444444444444444444444444444444444444444444444444444444444444444444444444444444444444444444444444444244$.OOO+O+.@..@=5344444444",
"4444444444444444444444444444444444444444444444444444444444444444444444444444444444444444444444444444424,.O@O+O+O@OO..$5<44444444",
"4444444444444444444444444444444444444444444444444444444444444444444444444444444444444444444444444444244,.O.OO+O+.O@..@5344444444",
"4444444444444444444444444444444444444444444444444444444444444444444444444444444444444444444444444444444,..@O+O+O+OO..@5<44444444",
"44444444444444444444444444444444444444444444444444444444444444444444444444444444444444444444444444444242.O.OO@O+O+O..$3<44444444",
"44444444444444444444444444444444444444444444444444444444444444444444444444444444444444444444444444444242=.@OO.+O+O+..,5<44444444",
"44444444444444444444444444444444444444444444444444444444444444444444444444444444444444444444444444444244,.@OOOOOO+o.@<4<44444444",
"444444444444444444444444444444444444444444444444444444444444444444444444444444444444444444444444444444244=.O@.@.+O.+<5<444444444",
"444444444444444444444444444444444444444444444444444444444444444444444444444444444444444444444444444444425<:O..@Oo.#,444444444444",
"44444444444444444444444444444444444444444444444444444444444444444444444444444444444444444444444444444444244<==++#:5<<44444444444",
"44444444444444444444444444444444444444444444444444444444444444444444444444444444444444444444444444444444444454444455444444444444",
"44444444444444444444444444444444444444444444444444444444444444444444444444444444444444444444444444444444444444444444444444444444",
"44444444444444444444444444444444444444444444444444444444444444444444444444444444444444444444444444444444444444444444444444444444",
"44444444444444444444444444444444444444444444444444444444444444444444444444444444444444444444444444444444444444444444444444444444",
"44444444444444444444444444444444444444444444444444444444444444444444444444444444444444444444444444444444444444444444444444444444",
"44444444444444444444444444444444444444444444444444444444444444444444444444444444444444444444444444444444444444444444444444444444",
"44444444444444444444444444444444444425,**;,<5<5444444444444444444444444444444444444444444444444444444444444444444444444444444444",
"4444444444444444444444444444444444225=@.OO@*454444444444444444444444444444444444444444444444444444444444444444444444444444444444",
"444444444444444444444444444444444222=..O@O..=44444444444444444444444444444444444444444444444444444444444444444444444444444444444",
"44444444444444444444444444444444425,@.O..O..+,5<44444444444444444444444444444444444444444444444444444444444444444444444444444444",
"44444444444444444444444444444444424=@OO@OOO+.;54<5444444444444444444444444444444444444444444444444444444444444444444444444444444",
"44444444444444444444444444444444424*O.O..@O..;5<25444444444444444444444444444444444444444444444444444444444444444444444444444444",
"44444444444444444444444444444444425;@.O@O.O@ ,4444444444444444444444444444444444444444444444444444444444444444444444444444444444",
"444444444444444444444444444444444242@.OOO@O.o<5444444444444444444444444444444444444444444444444444444444444444444444444444444444",
"444444444444444444444444444444444455;@.@@O..:44244444444444444444444444444444444444444444444444444444444444444444444444444444444",
"44444444444444444444444444444444444,4;@...@,<5<444444444444444444444444444444444444444444444444444444444444444444444444444444444",
"44444444444444444444444444444444444444<,:,<5554444444444444444444444444444444444444444444444444444444444444444444444444444444444",
"44444444444444444444444444444444444444444444444444444444444444444444444444444444444444444444444444444444444444444444444444444444",
"44444444444444444444444444444444444444444444444444444444444444444444444444444444444444444444444444444444444444444444444444444444",
"44444444444444444444444444444444444444444444444444444444444444444444444444444444444444444444444444444444444444444444444444444444",
"44444444444444444444444444444444444444444444444444444444444444444444444444444444444444444444444444444444444444444444444444444444",
"44444444444444444444444444444444444444444444444444444444444444444444444444444444444444444444444444444444444444444444444444444444",
"44444444444444444444444444444444444444444444444444444444444444444444444444444444444444444444444444444444444444444444444444444444",
"44444444444444444444444444444444444444444444444444444444444444444444444444444444444444444444444444444444444444444444444444444444",
"44444444444444444444444444444444444444444444444444444444444444444444444444444444444444444444444444444444444444444444444444444444",
"44444444444444444444444444444444444444444444444444444444444444444444444444444444444444444444444444444444444444444444444444444444",
"44444444444444444444444444444444444444444444444444444444444444444444444444444444444444444444444444444444444444444444444444444444",
"44444444444444444444444444444444444444444444444444444444444444444444444444444444444444444444444444444444444444444444444444444444",
"44444444444444444444444444444444444444444444444444444444444444444444444444444444444444444444444444444444444444444444444444444444",
"44444444444444444444444444444444444444444444444444444444444444444444444444444444444444444444444444444444444444444444444444444444",
"44444444444444444444444444444444444444444444444444444444444444444444444444444444444444444444444444444444444444444444444444444444",
"44444444444444444444444444444444444444444444444444444444444444444444444444444444444444444444444444444444444444444444444444444444",
"44444444444444444444444444444444444444444444444444444444444444444444444444444444444444444444444444444444444444444444444444444444",
"44444444444444444444444444444444444444444444444444444444444444444444444444444444444444444444444444444444444444444444444444444444",
"44444444444444444444444444444444444444444444444444444444444444444444444444444444444444444444444<,<252234444444444444444444444444",
"44444444444444444444444444444444444444444444444444444444444444444444444444444444444444445<44,=.OO.O$:252444444444444444444444444",
"4444444444444444444444444444444444444444444444444444444444444444444444444444444444444444445#..O+@OO.O$22244444444444444444444444",
"44444444444444444444444444444444444444444444444444444444444444444444444444444444444444425<@O+.+O.O.@OO@,424444444444444444444444",
"4444444444444444444444444444444444444444444444444444444444444444444444444444444444444424<$..O+O+OO@.Oo.+222444444444444444444444",
"4444444444444444444444444444444444444444444444444444444444444444444444444444444444445<44;.OO+O+O.@OOO+O+=52444444444444444444444",
"444444444444444444444444444444444444444444444444444444444444444444444444444444444444544,O.@.O+O+O.O..@+O@22244444444444444444444",
"444444444444444444444444444444444444444444444444444444444444444444444444444444444444<45:.@OO+O+OO@O@OOO.O:5244444444444444444444",
"444444444444444444444444444444444444444444444444444444444444444444444444444444444444245:..O+O+O+O+O+O+O..=2244444444444444444444",
"444444444444444444444444444444444444444444444444444444444444444444444444444444444444242=.OO.+O+O+O+O@.+..$5244444444444444444444",
"444444444444444444444444444444444444444444444444444444444444444444444444444444444444242:.OO@O+O+O+O+O+O..$5444444444444444444444",
"444444444444444444444444444444444444444444444444444444444444444444444444444444444444244=..OO+O+O+O+O+O+.@=5<44444444444444444444",
"4444444444444444444444444444444444444444444444444444444444444444444444444444444444445<5,.@O.@O@OO+O+O+O.@:4244444444444444444444",
"444444444444444444444444444444444444444444444444444444444444444444444444444444444444445,..O@.O.O+O+O+O+.@22244444444444444444444",
"4444444444444444444444444444444444444444444444444444444444444444444444444444444444444244,.OOOO@.O+O+O+.O=52444444444444444444444",
"4444444444444444444444444444444444444444444444444444444444444444444444444444444444444425,=.O.@OO+O+OO.O#222444444444444444444444",
"444444444444444444444444444444444444444444444444444444444444444444444444444444444444444<54+O@OOOO@O@.O=,224444444444444444444444",
"4444444444444444444444444444444444444444444444444444444444444444444444444444444444444444545=O@O@OOO@O=5<244444444444444444444444",
"44444444544444444444444444444444444444444444444444444444444444444444444444444444444444444445,=@OOO@#,5<5444444444444444444444444",
"4444445<5,#@@@,544444444444444444444444444444444444444444444444444444444444444444444444444445222,4445555444444444444444444444444",
"44445424,..O@..;,424444444444444444444444444444444444444444444444444444444444444444444444444444455554444444444444444444444444444",
"44445222@..@OOOO,442444444444444444444444444444444444444444444444444444444444444444444444444444423444444444444444444444444444444",
"44444<4,...O@...:<42444444444444444444444444444444444444444444444444444444444444444444444444444444444444444444444444444444444444",
"44445<4:O.@OOO..;542444444444444444444444444444444444444444444444444444444444444444444444444444444444444444444444444444444444444",
"4444445,O.O+O+@.;<33444444444444444444444444444444444444444444444444444444444444444444444444444444444444444444444444444444444444",
"44445<2<@.O++O+O<<5<444444444444444444444444444444444444444444444444444444444444444444444444444444444444444444444444444444444444",
"44444445,...O+O,<5<5444444444444444444444444444444444444444444444444444444444444444444444444444444444444444444444444444444444444",
"4444444<54=@+=,55355444444444444444444444444444444444444444444444444444444444444444444444444444444444444444444444444444444444444",
"44444444444444445544444444444444444444444444444444444444444444444444444444444444444444444444444444444444444444444444444444444444",
"44444444444444445544444444444444444444444444444444444444444444444444444444444444444444444444444444444444444444444444444444444444",
"44444444444444444444444444444444444444444444444444444444444444444444444444444444444444444444444444444444444444444444444444444444",
"44444444444444444444444444444444444444444444444444444444444444444444444444444444444444444444444444444444444444444444444444444444",
"44444444444444444444444444444444444444444444444444444444444444444444444444444444444444444444444444444444444444444444444444444444",
"44444444444444444444444444444444444444444444444444444444444444444444444444444444444444444444444444444444444444444444444444444444",
"44444444444444444444444444444444444444444444444444444444444444444444444444444444444444444444444444444444444444444444444444444444",
"44444444444444444444444444444444444444444444444444444444444444444444444444444444444444444444444444444444444444444444444444444444",
"44444444444444444444444444444444444444444444444444444444444444444444444444444444444444444444444444444444444444444444444444444444",
"44444444444444444444444444444444444444444444444444444444444444444444444444444444444444444444444444444444444444444444444444444444",
"44444444444444444444444444444444444444444444444444444444444444444444444444444444444444444444444444444444444444444444444444444444",
"44444444444444444444444444444444444444444444444444444444444444444444444444444444444444444444444444444444444444444444444444444444",
"44444444444444444444444444444444444444444444444444444444444444444444444444444444444444444444444444444444444444444444444444444444",
"44444444444444444444444444444444444444444444444444444444444444444444444444444444444444444444444444444444444444444444444444444444",
"44444444444444444444444444444444444444444444444444444444444444444444444444444444444444444444444444444444444444444444444444444444",
"44444444444444444444444444444444444444444444444444444444444444444444444444444444444444444444444444444444444444444444444444444444"
};
