/* XPM */
static char *TombStone1648979496[] = {
/* columns rows colors chars-per-pixel */
"54 55 85 1 ",
"  c None",
". c gray30",
"X c #4E4E4E",
"o c gray32",
"O c gray33",
"+ c #555555",
"@ c gray34",
"# c gray35",
"$ c #5F5F5F",
"% c #606060",
"& c #626262",
"* c gray39",
"= c #646464",
"- c #656565",
"; c gray40",
": c #676767",
"> c #686868",
", c DimGray",
"< c #6A6A6A",
"1 c gray42",
"2 c #6C6C6C",
"3 c #6D6D6D",
"4 c gray43",
"5 c #6F6F6F",
"6 c gray44",
"7 c #717171",
"8 c #727272",
"9 c gray45",
"0 c #747474",
"q c gray46",
"w c #767676",
"e c #777777",
"r c gray47",
"t c #797979",
"y c gray48",
"u c #7B7B7B",
"i c #7C7C7C",
"p c gray49",
"a c #7E7E7E",
"s c gray50",
"d c #808080",
"f c #818181",
"g c gray51",
"h c #838383",
"j c #848484",
"k c gray52",
"l c #868686",
"z c gray53",
"x c #888888",
"c c #898989",
"v c gray54",
"b c #8B8B8B",
"n c gray55",
"m c #8D8D8D",
"M c #8E8E8E",
"N c gray56",
"B c #909090",
"V c gray57",
"C c #929292",
"Z c #939393",
"A c gray58",
"S c #959595",
"D c gray59",
"F c #979797",
"G c #989898",
"H c gray60",
"J c #9A9A9A",
"K c #9B9B9B",
"L c gray61",
"P c #9D9D9D",
"I c gray62",
"U c #9F9F9F",
"Y c #A0A0A0",
"T c gray63",
"R c #A2A2A2",
"E c gray64",
"W c #A4A4A4",
"Q c #A5A5A5",
"! c gray65",
"~ c #A7A7A7",
"^ c gray66",
"/ c #A9A9A9",
"( c #AAAAAA",
") c gray67",
"_ c #ACACAC",
/* pixels */
"                    !//__!Hk::&                       ",
"                 _!!UUHHHHR!/Rf::::                   ",
"               /RUHHHHHHHHHHHH!Rf::::                 ",
"             /!HHHHHHHHHHHHHHHHHRU,:::&               ",
"            /UHHHHHDHHDHDHDHHDHDDH!q:::&              ",
"           !HDHHDHDDDDDDDHDDDDDDDDDRq::::             ",
"          !DDHDDHDDDDDDDDDDDDVDDDDDDU6:::&            ",
"         !DDDDDDDDDDDDDDDDDDDDDVVDVVDU:::::           ",
"        RHDVDDDDDVDDDVDVDVDDVVDVVDVDVDV::::&          ",
"        UDVDVDVDDDVVVDVDDVVDNVVVVVVVDVH6&::&          ",
"       RDVDVDVDVVVVDVVVVVVVVNVVVVVVVVVVN:::::         ",
"       HVDVVVVVVDVkfVVVVVVVVVVVVVNNNVNVD,::::         ",
"       VVVNVVVNVVV,:fVVNVNNNVNNNNNNNNNNNf::::&        ",
"      HVVNNNVNNNVNy6bNNNNNNNNNNNNNbNNNNNb:&:::        ",
"      DVNNNNNNNNNNNNNNNNNNNNNNbNbNbNbbNbN::::&        ",
"      VNNNNNNNNNNNNbbNbbNbbNbbbbNbbbNbbbN,:::::       ",
"      bNNbbNbNNbbNbNbbNbbbNbbbbbbbbbbbbbbq::&:&       ",
"      NNbNbbNbbNbbbbbbbbbbbbbbbbbbbkbbkbb2:::::       ",
"      kNbbbbbbbbbbbbbbbbbbbbbbkbbbbkbbbbb6:&:::       ",
"      $,2ybbkbkbbbbkbkbkbkbkkkbkkbkbkkkbk2::&::       ",
"      DHVkpfkbbbkbkbkbkbbkkbbbkkbkkkkbkbk6::&::       ",
"      Hbbbbbkbkbkbbbkkbkkbkbkkkppkkbkkkkk6::&#+       ",
"      kbkkkkbkkbkbkkkkbkkkkkkkkyqkkkkkkkk2:#XX        ",
"      kbkbkkkkkkkkkkkkkkkkkkkkkfkkfkkkfkf6&&&&        ",
"      kkkkkkkkkkkkkkkkkkkkkfkkfkkfkkfkfkf2:&&:&       ",
"      kkkkkkkfkkkkkffffkkfkkfkffffffffkff2:$oo        ",
"      kkkfkffypfffkffkfffffffffffffffffff2:::         ",
"      kffffff26fkfffffffffffffffffpffffpf2&:::        ",
"      fffffffpfffffpffpffffffffpfpfppfppp2,:&:        ",
"      fffffffffffffffpfpppppppppppppppppp2:::::       ",
"      fffppfpppppppppppppppppppppypypppyp2:::::       ",
"      ppppppppppppppyppyppypppyyypypyyypy,:&&::       ",
"      pppypypypppyppyyyypyypyyyyyyyyyyyyy,&::&:       ",
"      ppypyyypyyypyyyyyyyyyyyyyyyqyyqyyyy2:::::       ",
"      yyyyyyyyyyyyyyyyyyyyyyyyyyqyqyyyqyy2::&::       ",
"      q:pfpyyyyyqyyyyqqyqqyqyq66yqyqqqyyq,:::::       ",
"      kDfyqyqqyyyqyqqyyqyqyqqyyqqqqqqqqqq,:::&:       ",
"      bqqqyyqyqqqy6qqqqqqqqqqqqqqqqqqqqqq::::::       ",
"      yyqqqqqqqyqqyqqqqqqqqqqq66qqqqqqqqq,:&&::       ",
"      qqqqqqqqqqqqq6qqqqqqqqqqqq6q6qq6q66,:::::       ",
"      qqqqq6qqqqqq6qq66q6q6qq66qq6666q66q,:&::&       ",
"      qqq6q6q6q6q6q6q6q6q6q66q666q6666666,:::::       ",
" UUURRHHUDHHHHHHHHHHHHHHHHDHUHHHHHHHUHHHHHHHV::&&:&:  ",
" VNNNNNNNNNNNNNVNNNNNNNNNNNNNNNNNVNNNNNNNNNNb:::::::: ",
" ffppfffffffpfpffffffpfpfffpfpfpfffpffpfffffp::&&::&::",
"pffffq,2ppfpffffpfpfffffpfffffffpffffpfffpfpp::::::::&",
"fpfpp:::2fffffpffffpfpfffpfpfpfpfpfpffffpfffy::::::::&",
"pfffp:::2pfpfpffpfffffpffffffpqpfffffpfpfffpp::&&::&::",
"fffpf6:,ypffffpfffpfffffpffff,:,fpfffffyypffp::&::&:::",
"fpfffffpfffpfpfffpfffpfpfffpf:::ffpfpfpyqpfpp::::::::&",
"ppfpfpfppfpffffffffffppppfpfpy2yffffpfffffffp:::&:::::",
"fffffffffffffpfpfpfpffffffffffffpfpffffpfpfpp::&::&::&",
"fpfpfffppfffffffffffpfpfpffffffffpfpffffffpfp::::::::&",
"pfffpffffffpfpfppfppfffffffppfppfffffpfpfpffp&:::&::&:",
"pfpffppfpyyqyyyyyyyyyqyyyqyyyyyyyyqyyyyyyyqyq::&&::&: "
};
